<svg xmlns="http://www.w3.org/2000/svg" viewBox="0 0 24 24" fill="currentColor" class="w-8 h-8">
  <path fill-rule="evenodd" d="M11.25 2.25c-5.523 0-10 4.477-10 10s4.477 10 10 10 10-4.477 10-10-4.477-10-10-10Zm-7.5 10a7.5 7.5 0 1 1 15 0 7.5 7.5 0 0 1-15 0Zm12.59-4.52a.75.75 0 0 0-1.18-.93l-4.5 5.625a.75.75 0 0 1-1.06 0l-2.25-2.25a.75.75 0 0 0-1.06 1.06l2.25 2.25c.69.69 1.83.69 2.52 0l4.5-5.625Z" clip-rule="evenodd" />
  <path d="M15.75 9.75a4.5 4.5 0 1 1-8.344 2.522l.53-.531a3.75 3.75 0 1 0 7.284-2.522l-.47.531Z" />
</svg> 